<svg xmlns="http://www.w3.org/2000/svg" xmlns:xlink="http://www.w3.org/1999/xlink" width="89" height="80" version="1.1" viewBox="0 0 89 80"><title>13B549BE-EB59-4E0C-A844-8B8CAA4BEB12</title><desc>Created with sketchtool.</desc><defs><polygon id="path-1" points="0 .536 52.472 .536 52.472 71.814 0 71.814"/><polygon id="path-3" points=".493 0 52.439 0 52.439 79.385 .493 79.385"/></defs><g id="Asset-Artboard-Page" fill="none" fill-rule="evenodd" stroke="none" stroke-width="1"><g id="illo-high-quality-talent-Illustration/130/hire-and-evaluate"><g id="Illustration/130/hire-and-evaluate"><g id="Group-33" transform="translate(0.000000, 0.307692)"><polygon id="Fill-1" fill="#E0E0E0" points="36.113 70.324 80.988 75.425 88.465 9.319 43.59 4.212"/><g id="Group-32"><path id="Fill-2" fill="#D1D1D1" d="M52.5024524,29.5383996 C51.8260524,35.5230146 56.1207627,40.9254759 62.0880593,41.6079374 C68.0553558,42.2867066 73.4444592,37.984553 74.1208592,31.9999379 C74.7991006,26.0159382 70.508073,20.6116308 64.5377075,19.9310154 C58.570411,19.2547077 53.1837628,23.5568614 52.5024524,29.5383996"/><g id="Group-6" transform="translate(0.000000, 3.692308)"><mask id="mask-2" fill="#fff"><use xlink:href="#path-1"/></mask><polygon id="Fill-4" fill="#E0E0E0" points="52.472 66.613 7.624 71.814 0 5.737 44.849 .536" mask="url(#mask-2)"/></g><path id="Fill-7" fill="#D1D1D1" d="M35.9959594,29.5696623 C36.6877043,35.548124 32.4083386,40.9622781 26.4428831,41.6527396 C20.4768138,42.3450474 15.0809584,38.0595087 14.3892135,32.0748932 C13.6999238,26.0964314 17.9786757,20.6841235 23.9416761,19.9930466 C29.9114281,19.3007389 35.3066697,23.5850467 35.9959594,29.5696623"/><g id="Group-11" transform="translate(17.800000, 0.000000)"><mask id="mask-4" fill="#fff"><use xlink:href="#path-3"/></mask><polygon id="Fill-9" fill="#1D4354" points="52.439 79.327 .581 79.385 .493 .057 52.351 0" mask="url(#mask-4)"/></g><polygon id="Fill-12" fill="#6FDA44" points="61.504 70.552 27.914 70.59 27.903 60.394 61.492 60.356"/><path id="Fill-14" fill="#F9F9F9" d="M60.8108263,27.5123689 C60.8212498,36.6563688 53.4336361,44.0828303 44.3138983,44.0933016 C35.1910916,44.103138 27.7875193,36.6926765 27.7776875,27.5486766 C27.7672641,18.4065228 35.154264,10.9825229 44.2770707,10.9726656 C53.3980361,10.9622152 60.8009946,18.3702151 60.8108263,27.5123689"/><path id="Fill-16" fill="#B2B2B2" d="M49.9933282,25.9175986 C49.9963942,28.9102139 47.5768218,31.34406 44.5937873,31.3471398 C41.6046149,31.3502138 39.1832011,28.9225216 39.1795154,25.9299063 C39.1764493,22.9372911 41.592339,20.503445 44.5821252,20.5003639 C47.5651597,20.4966758 49.9896425,22.9249834 49.9933282,25.9175986"/><path id="Fill-18" fill="#B2B2B2" d="M49.3921154,31.8486164 C48.2608947,32.768001 46.8651293,33.3729241 45.3361708,33.5249241 C45.0881984,33.5526164 44.8408397,33.5741549 44.5904122,33.5747703 C44.3369156,33.5747703 44.0889432,33.5538472 43.8415846,33.5249241 C42.3150813,33.3753857 40.9236124,32.7747703 39.7936193,31.8547702 C36.5441988,33.3526164 34.1166472,36.3076935 33.3322196,39.8941551 C36.2551023,42.5009245 40.0925365,44.0990784 44.3142053,44.0947794 C48.7691154,44.0898476 52.7986669,42.3064629 55.767584,39.4276936 C54.8769703,36.0418473 52.5095704,33.2744626 49.3921154,31.8486164"/><path id="Fill-20" fill="#FFF" d="M67.7627591,74.4954488 L63.9603109,70.6929871 L67.2146418,68.6117563 C67.2950487,68.5336024 67.2551522,68.3982178 67.1452832,68.3692947 L55.7716973,64.2905254 C55.6648973,64.2622177 55.5734421,64.3606792 55.5961525,64.4628331 L59.6926075,75.8609873 C59.7183868,75.9711411 59.8564903,76.0080642 59.934442,75.9274488 L62.0041523,72.6652949 L65.8041453,76.4634488 C65.9048074,76.5643719 66.0686901,76.5643719 66.1693522,76.4634488 L67.7627591,74.862218 C67.8634211,74.7606795 67.8634211,74.5976026 67.7627591,74.4954488"/><path id="Fill-22" fill="#F2F2F2" d="M29.9053497,50.9547058 L30.5657912,49.0408596 C30.5774532,49.0150134 30.6118256,49.0150134 30.6204187,49.0408596 L31.2710395,50.9356289 C31.2759498,50.9473212 31.2851567,50.9528597 31.2968188,50.9528597 L33.2001913,51.0156289 C33.2259706,51.0156289 33.2376327,51.0463981 33.2173775,51.0667058 L31.7301567,52.3411674 C31.7301567,52.3411674 31.7184947,52.3614751 31.7215636,52.3713213 L32.2500395,54.2623982 C32.2561774,54.2882444 32.2273292,54.3097829 32.2046188,54.295629 L30.613667,53.2433213 C30.6050739,53.2359367 30.5934118,53.2359367 30.5823636,53.2433213 L29.0079842,54.2987059 C28.98466,54.3134752 28.9558118,54.2919367 28.9619497,54.2654752 L29.4812187,52.3553213 C29.4812187,52.3436289 29.4812187,52.332552 29.4695566,52.3263982 L27.9737428,51.1140904 C27.9504186,51.0968597 27.9620807,51.0636289 27.98786,51.0623981 L29.8795704,50.9762443 C29.8918463,50.9762443 29.9028946,50.9663981 29.9053497,50.9547058"/><path id="Fill-24" fill="#F2F2F2" d="M37.0473239,50.9467711 L37.7077653,49.032925 C37.7194274,49.0070789 37.753186,49.0070789 37.7623929,49.032925 L38.4123998,50.9276942 C38.4154688,50.9393865 38.4265171,50.9455404 38.4265171,50.9455404 L40.3415516,51.0083096 C40.3679447,51.0076942 40.3826758,51.0384634 40.3593516,51.0587711 L38.8721309,52.3332326 C38.8604688,52.3424634 38.8604688,52.3535403 38.8604688,52.3633865 L39.3920137,54.2544634 C39.3981516,54.2803095 39.3693033,54.301848 39.3459792,54.2876941 L37.7580963,53.2353865 C37.7470481,53.2286172 37.735386,53.2286172 37.7237239,53.2353865 L36.1468894,54.2913864 C36.1266342,54.3055403 36.0977859,54.2840018 36.1039238,54.2581557 L36.6231928,52.3473865 C36.6231928,52.3356942 36.6201239,52.3246173 36.610917,52.3184634 L35.1126479,51.1061557 C35.091779,51.088925 35.103441,51.0556942 35.1298341,51.0544634 L37.0215446,50.9683096 C37.0332066,50.9683096 37.0442549,50.9584634 37.0473239,50.9467711"/><path id="Fill-26" fill="#F2F2F2" d="M44.1922424,50.9387697 L44.8490009,49.025539 C44.8582078,48.9990775 44.8956492,48.9990775 44.9042423,49.0249236 L45.5542492,50.9196928 C45.5573181,50.9313851 45.5683664,50.9375389 45.5683664,50.9375389 L47.4834008,51.0003082 C47.5091801,51.0003082 47.521456,51.030462 47.5042698,51.0507697 L46.0139802,52.3252312 C46.0139802,52.3252312 46.0017043,52.3455389 46.0047733,52.3560004 L46.5338629,54.2464619 C46.5393871,54.272308 46.5105388,54.2938465 46.4878284,54.2796927 L44.8968768,53.227385 C44.8888975,53.2206158 44.8741665,53.2206158 44.8655734,53.227385 L43.2911941,54.283385 C43.2684838,54.2975388 43.2396355,54.2760003 43.2451597,54.2501542 L43.7613596,52.339385 C43.7644286,52.3276927 43.7613596,52.3166158 43.7613596,52.3166158 L42.2538838,51.0981543 C42.2342425,51.0809235 42.2452907,51.0476928 42.27107,51.046462 L44.1633941,50.9603082 C44.1750562,50.9603082 44.1861044,50.950462 44.1922424,50.9387697"/><path id="Fill-28" fill="#F2F2F2" d="M51.330597,50.9309536 L51.9910383,49.0171075 C51.9996315,48.9912614 52.0370728,48.9912614 52.0456659,49.0171075 L52.6962866,50.9118767 C52.6987418,50.923569 52.7104039,50.9297229 52.7220659,50.9291075 L54.6254384,50.9918767 C54.6512177,50.9918767 54.6628798,51.0226459 54.6426246,51.0429536 L53.1554039,52.3174151 C53.1554039,52.3174151 53.1437418,52.3377228 53.1468108,52.347569 L53.6752867,54.2386459 C53.6814246,54.264492 53.6525763,54.2860305 53.629866,54.2718766 L52.0389142,53.219569 C52.0303211,53.2121843 52.018659,53.2121843 52.0076108,53.219569 L50.4332314,54.2755689 C50.4099073,54.2897228 50.381059,54.2681843 50.3902659,54.2423382 L50.9033969,52.331569 C50.9089211,52.3198767 50.9033969,52.3087998 50.8948038,52.3026459 L49.3959211,51.0903382 C49.3756659,51.0731075 49.3873279,51.0398767 49.4131073,51.0386459 L51.3048176,50.9524921 C51.3048176,50.9524921 51.3281418,50.9426459 51.330597,50.9309536"/><path id="Fill-30" fill="#F2F2F2" d="M58.4725108,50.9230144 L59.1323384,49.0091683 C59.1415453,48.9833221 59.1814419,48.9833221 59.1875798,49.0091683 L59.8375867,50.9039375 C59.8406557,50.9156298 59.851704,50.9217836 59.8639798,50.9217836 L61.7667385,50.9845528 C61.7931316,50.9845528 61.8078626,51.0147067 61.7845385,51.0350144 L60.2973178,52.3094759 C60.2850419,52.3187066 60.2850419,52.3297836 60.2850419,52.3396297 L60.8172005,54.2307066 C60.8233385,54.2565527 60.7944902,54.2780912 60.774235,54.2639374 L59.1802143,53.2116297 C59.172235,53.2048605 59.157504,53.2048605 59.1495246,53.2116297 L57.5745315,54.2676297 C57.5548901,54.2817835 57.5229729,54.2602451 57.5291108,54.2343989 L58.0483798,52.3236297 C58.0483798,52.3119374 58.0453108,52.3008605 58.0453108,52.3008605 L56.537835,51.082399 C56.516966,51.0651682 56.5286281,51.0319374 56.5544074,51.0307067 L58.4467315,50.9445528 C58.4583936,50.9445528 58.4694419,50.9347067 58.4725108,50.9230144"/></g></g></g></g></g></svg>